<?xml version="1.0" standalone="no"?><!DOCTYPE svg PUBLIC "-//W3C//DTD SVG 1.1//EN" "http://www.w3.org/Graphics/SVG/1.1/DTD/svg11.dtd"><svg t="1710859352740" class="icon" viewBox="0 0 1024 1024" version="1.1" xmlns="http://www.w3.org/2000/svg" p-id="4276" width="48" height="48" xmlns:xlink="http://www.w3.org/1999/xlink"><path d="M1024 601.389176l-117.940706 0.120471L782.516706 361.411765H303.706353L124.928 602.292706 0 602.352941v299.791059h120.591059L120.470588 903.529412c0 66.439529 54.031059 120.470588 120.470588 120.470588s120.470588-54.031059 120.470589-120.470588l-0.120471-1.385412h301.477647c-0.060235 0.481882-0.180706 0.903529-0.180706 1.385412 0 66.439529 54.031059 120.470588 120.470589 120.470588s120.470588-54.031059 120.470588-120.470588l-0.120471-1.385412H1024V601.389176z m-185.645176 0.180706l-234.736942 0.240942V421.647059h142.155294l92.581648 179.922823zM333.944471 421.647059h209.438117v180.224l-343.401412 0.301176L333.944471 421.647059zM240.941176 963.764706c-33.189647 0-60.235294-27.045647-60.235294-60.235294s27.045647-60.235294 60.235294-60.235294 60.235294 27.045647 60.235295 60.235294-27.045647 60.235294-60.235295 60.235294z m542.117648 0c-33.189647 0-60.235294-27.045647-60.235295-60.235294s27.045647-60.235294 60.235295-60.235294 60.235294 27.045647 60.235294 60.235294-27.045647 60.235294-60.235294 60.235294z m180.705882-121.856h-77.763765C864.918588 806.851765 826.910118 783.058824 783.058824 783.058824s-81.859765 23.792941-102.942118 58.849882H343.883294C322.800941 806.851765 284.792471 783.058824 240.941176 783.058824s-81.859765 23.792941-102.942117 58.849882H60.235294V662.588235l903.529412-0.903529v180.224z" p-id="4277" fill="#1296db"></path></svg>